<svg xmlns="http://www.w3.org/2000/svg" xmlns:xlink="http://www.w3.org/1999/xlink" id="Capa_1" x="0" y="0" version="1.1" viewBox="0 0 512 512" xml:space="preserve" style="enable-background:new 0 0 512 512"><circle style="fill:#e6021f" cx="256" cy="256" r="256"/><path style="fill:#af1916" d="M512,256c0-1.131-0.028-2.254-0.043-3.382L351.528,92.189c-26.013-10.307-56.792-4.95-77.836,16.093	c-19.831,19.831-25.72,48.305-17.71,73.291l-11.055,11.055L174.76,121.82l-37.924-22.085l-17.207,17.207l22.085,37.924	l70.808,70.167L99.592,337.962c-9.397,9.397-9.397,24.775,0,34.173l139.281,139.281C244.536,511.79,250.243,512,256,512	C397.385,512,512,397.385,512,256z"/><polygon style="fill:#fff" points="141.714 154.866 119.628 116.942 136.836 99.735 174.76 121.82 182.022 147.896 181.983 147.935 306.994 272.946 292.832 287.108 167.821 162.097 167.79 162.128"/><polygon style="fill:#e7e7e8" points="141.718 154.864 167.789 162.126 167.818 162.098 292.834 287.114 299.919 280.029 128.234 108.344 119.628 116.949"/><rect style="fill:#ffac1f" width="51.729" height="21.552" x="274.64" y="269.827" transform="matrix(0.7071 -0.7071 0.7071 0.7071 -110.4009 294.6751)"/><rect style="fill:#f08a17" width="21.555" height="25.86" x="280.576" y="276.819" transform="matrix(0.7071 0.7071 -0.7071 0.7071 290.2188 -121.1524)"/><path style="fill:#fee572" d="M395.806,390.528l14.615-14.615c12.046-12.047,12.046-31.759,0-43.805l-76.192-76.192l-58.421,58.42	L352,390.528C364.047,402.574,383.759,402.574,395.806,390.528z"/><path style="fill:#ffcb26" d="M275.803,314.334l76.199,76.199c12.042,12.042,31.756,12.042,43.805-0.007l7.304-7.304	l-98.098-98.098L275.803,314.334z"/><path style="fill:#fff" d="M375.995,210.585c21.044-21.044,26.4-51.823,16.093-77.836l-39.064,39.064l-38.101-2.459	l-2.459-38.101l39.064-39.064c-26.013-10.307-56.792-4.95-77.836,16.094c-19.831,19.83-25.72,48.305-17.71,73.291L99.592,337.962	c-9.397,9.397-9.397,24.775,0,34.173l12.55,12.55c9.398,9.397,24.775,9.397,34.173,0l156.39-156.389	C327.691,236.306,356.165,230.416,375.995,210.585z"/><path style="fill:#e7e7e8" d="M375.994,210.587c-19.827,19.827-48.303,25.716-73.286,17.711l-156.39,156.39	c-9.394,9.394-24.779,9.394-34.174,0l-6.278-6.278l209.059-209.059l38.1,2.46l39.062-39.062	C402.392,158.76,397.039,189.543,375.994,210.587z"/><path style="fill:#00f7fd" d="M263.767,198.188L116.184,345.771c-5.18,5.18-5.18,13.656,0,18.836l3.487,3.487	c5.18,5.18,13.656,5.18,18.836,0L286.09,220.511c-4.395-2.794-8.562-6.09-12.398-9.925	C269.856,206.75,266.56,202.583,263.767,198.188z"/><path style="fill:#01d8df" d="M286.086,220.511L138.504,368.093c-5.181,5.182-13.652,5.175-18.827,0l-1.746-1.746l155.759-155.76	C277.527,214.424,281.695,217.713,286.086,220.511z"/></svg>