<svg xmlns="http://www.w3.org/2000/svg" xmlns:xlink="http://www.w3.org/1999/xlink" id="Capa_1" x="0" y="0" version="1.1" viewBox="0 0 512 512" xml:space="preserve" style="enable-background:new 0 0 512 512"><circle style="fill:#ffac1f" cx="256" cy="256" r="256"/><path style="fill:#f08a17" d="M511.801,265.64l-92.751-93.196c-5.088-5.522-12.16-9.184-20.087-9.857L328.82,92.303	c-2.907-3.248-7.12-5.302-11.797-5.302H194.977c-8.731,0-15.875,7.144-15.875,15.875v13.009c0,4.673,2.052,8.879,5.297,11.782	l9.95,9.232v25.569h-22.495l-12.231-12.426c-1.728-2.226-4.429-3.658-7.465-3.658h-19.235c-5.22,0-9.451,4.231-9.451,9.451v6.632	h-7.787c-17.074,0-30.914,13.841-30.914,30.915v180.704c0,7.797,2.889,14.915,7.653,20.351l112.761,112.511	C221.609,510.256,238.6,512,256,512C394.155,512,506.729,402.556,511.801,265.64z"/><path style="fill:#ff4e1a" d="M161.609,163.334h-38.138v-7.5c0-5.22,4.231-9.451,9.451-9.451h19.235	c5.22,0,9.451,4.231,9.451,9.451L161.609,163.334L161.609,163.334z"/><path style="fill:#ed2602" d="M388.529,163.334h-38.138v-7.5c0-5.22,4.232-9.451,9.451-9.451h19.235	c5.22,0,9.451,4.231,9.451,9.451v7.5H388.529z"/><rect style="fill:#e7e7e8" width="24.688" height="51.11" x="194.35" y="116.04"/><rect style="fill:#bcbbc0" width="24.688" height="51.11" x="292.96" y="116.04"/><path style="fill:#fff" d="M396.316,405H115.684c-17.074,0-30.915-13.841-30.915-30.915V193.381	c0-17.074,13.841-30.915,30.915-30.915h280.632c17.074,0,30.915,13.841,30.915,30.915v180.704	C427.231,391.159,413.39,405,396.316,405z"/><path style="fill:#e7e7e8" d="M427.23,193.38v180.71c0,17.07-13.84,30.91-30.91,30.91H256V162.47h140.32	C413.39,162.47,427.23,176.31,427.23,193.38z"/><path style="fill:#ff4e1a" d="M317.023,131.759H194.977c-8.731,0-15.875-7.144-15.875-15.875v-13.009	c0-8.731,7.144-15.875,15.875-15.875h122.045c8.731,0,15.875,7.144,15.875,15.875v13.009	C332.898,124.616,325.754,131.759,317.023,131.759z"/><path style="fill:#ed2602" d="M332.9,102.88v13c0,8.74-7.15,15.88-15.88,15.88H256V87h61.02C325.75,87,332.9,94.14,332.9,102.88z"/><polygon style="fill:#e6021f" points="324.449 258.99 280.743 258.99 280.743 215.284 231.257 215.284 231.257 258.99 187.551 258.99 187.551 308.477 231.257 308.477 231.257 352.182 280.743 352.182 280.743 308.477 324.449 308.477"/><polygon style="fill:#c1021a" points="324.45 258.99 324.45 308.48 280.74 308.48 280.74 352.18 256 352.18 256 215.28 280.74 215.28 280.74 258.99"/></svg>