<svg enable-background="new 0 0 24 24" height="512" viewBox="0 0 24 24" width="512" xmlns="http://www.w3.org/2000/svg"><path d="m12 24c-.178 0-.356-.064-.499-.189-.347-.309-8.501-7.643-8.501-14.746 0-4.999 4.038-9.065 9-9.065s9 4.066 9 9.065c0 7.103-8.154 14.437-8.501 14.745-.143.126-.321.19-.499.19z" fill="#f44336"/><path d="m12 14c-2.757 0-5-2.243-5-5s2.243-5 5-5 5 2.243 5 5-2.243 5-5 5z" fill="#fff"/><path d="m12 0c-4.962 0-9 4.066-9 9.065 0 7.103 8.154 14.437 8.501 14.745.143.126.321.19.499.19v-10c-2.757 0-5-2.243-5-5s2.243-5 5-5z" fill="#d43a2f"/><path d="m12 4c-2.757 0-5 2.243-5 5s2.243 5 5 5z" fill="#dedede"/></svg>