<svg xmlns="http://www.w3.org/2000/svg" xmlns:xlink="http://www.w3.org/1999/xlink" id="Capa_1" x="0" y="0" fill="#fff" version="1.1" viewBox="0 0 512 512" xml:space="preserve" style="enable-background:new 0 0 512 512"><g><g><path d="M378.826,183.512c-1.029-12.147-5.406-23.607-12.557-33.235L207.287,347.595c62.389-5.125,125.389-0.403,186.647,14.197 L378.826,183.512z"/></g></g><g><g><path d="M256,0c-42.458,0-77,34.542-77,77s34.542,77,77,77s77-34.542,77-77S298.458,0,256,0z"/></g></g><g><g><path d="M256,184c-38.466,0-72.25-20.406-91.112-50.957c-3.88,2.295-7.548,4.991-10.925,8.094 c-12.027,11.051-19.41,26.1-20.789,42.375l-15.108,178.28c15.443-3.68,30.998-6.718,46.625-9.145L314.785,166.36 C297.903,177.502,277.698,184,256,184z"/></g></g><g><g><path d="M8.772,399.353L0,403.358V433h30v-10.269c27.706-12.084,85-29.277,85-29.277l3.066-31.664 C80.814,370.668,44.204,383.18,8.772,399.353z"/></g></g><g><g><path d="M503.229,399.354c-35.432-16.172-72.042-28.685-109.294-37.563L397,393.455c0,0,57.294,17.193,85,29.277V433h30v-29.642 L503.229,399.354z"/></g></g><g><g><path d="M146,386.397V512h100V390h20v122h100V386.401C293.377,371.986,218.623,371.981,146,386.397z"/></g></g><g><g><path d="M164.691,352.645l-2.371,2.944l23.36,18.822l21.607-26.817C193.047,348.764,178.84,350.448,164.691,352.645z"/></g></g><g><g><path d="M448.823,0L343.315,130.949c5.303,2.676,10.26,6.088,14.722,10.187c3.051,2.804,5.801,5.867,8.232,9.14L463.177,30H486V0 H448.823z"/></g></g></svg>