<svg xmlns="http://www.w3.org/2000/svg" id="admin" fill="currentColor" viewBox="0 0 512 512"><path d="M469.922 270.678c-57.692-16.97-107.221-56.706-136.453-109.291 6.269-12.662 7.18-27.623 1.958-41.255l-11.67-30.465c-6.262-16.345-22.229-27.327-39.732-27.327h-6.469a40.913 40.913 0 0 0 5.875-21.169c0-22.701-18.469-41.17-41.17-41.17s-41.169 18.469-41.169 41.17a40.92 40.92 0 0 0 5.875 21.169h-6.469c-17.503 0-33.47 10.982-39.732 27.327l-11.671 30.465c-7.253 18.937-2.676 40.438 11.663 54.777l27.259 27.259-17.513 161.112a31.543 31.543 0 0 0 2.406 15.942h-15.232c-5.523 0-10 4.477-10 10v46.389H101.29c-5.523 0-10 4.477-10 10V492H44.9c-5.523 0-10 4.477-10 10s4.477 10 10 10h152.361c5.523 0 10-4.477 10-10s-4.477-10-10-10H111.29v-36.389h46.389c5.523 0 10-4.477 10-10v-46.389h149.167v46.389c0 5.523 4.477 10 10 10h46.389V492h-85.973c-5.523 0-10 4.477-10 10s4.477 10 10 10h152.361c5.523 0 10-4.477 10-10s-4.477-10-10-10h-46.388v-46.389c0-5.523-4.477-10-10-10h-46.389v-46.389c0-5.523-4.477-10-10-10h-15.233a31.543 31.543 0 0 0 2.406-15.942l-2.758-25.37a42.214 42.214 0 0 1 24.658 3.785 61.803 61.803 0 0 0 27.108 6.26c23.076-.002 45.289-12.887 56.041-34.996 8.358-17.187 27.309-26.598 46.092-22.878l.005-.023a9.991 9.991 0 0 0 1.941.216c4.322 0 8.308-2.824 9.589-7.181 1.557-5.298-1.474-10.857-6.773-12.415zM221.092 41.17c0-11.673 9.497-21.17 21.169-21.17 11.673 0 21.17 9.497 21.17 21.17s-9.497 21.169-21.17 21.169-21.169-9.496-21.169-21.169zm-53.32 86.116 11.671-30.465c3.318-8.662 11.779-14.481 21.055-14.481h83.527c9.276 0 17.737 5.82 21.055 14.481l11.67 30.465c4.434 11.574 1.636 24.716-7.128 33.48l-13.65 13.651V128c0-5.523-4.477-10-10-10s-10 4.477-10 10v59.8h-67.421V128c0-5.523-4.477-10-10-10s-10 4.477-10 10v46.417l-13.65-13.65c-8.765-8.765-11.563-21.907-7.129-33.481zm39.751 80.514H277l17.136 157.641c.668 6.144-3.577 11.797-9.663 12.87-6.346 1.125-12.462-3.128-13.627-9.469l-18.749-102.029a10 10 0 0 0-19.67 0l-18.749 102.029c-1.165 6.341-7.277 10.586-13.627 9.469-6.086-1.073-10.331-6.726-9.663-12.87zm23.781 171.422a31.62 31.62 0 0 0 2.044-6.766l8.913-48.505 8.913 48.505a31.62 31.62 0 0 0 2.044 6.766zm169.778-75.01c-10.179 20.929-35.486 29.674-56.417 19.497a62.21 62.21 0 0 0-35.567-5.691l-12.593-115.85 23.725-23.725c25.587 42.511 63.599 76.676 108.239 97.768-11.618 5.99-21.367 15.623-27.387 28.001zm-6.089-233.203c5.426 0 9.84 4.414 9.84 9.84 0 5.523 4.477 10 10 10s10-4.477 10-10c0-5.426 4.414-9.84 9.84-9.84 5.523 0 10-4.477 10-10s-4.477-10-10-10c-5.426 0-9.84-4.414-9.84-9.839 0-5.523-4.477-10-10-10s-10 4.477-10 10c0 5.425-4.414 9.839-9.84 9.839-5.523 0-10 4.477-10 10s4.477 10 10 10zM50.261 192.881c5.426 0 9.84 4.414 9.84 9.839 0 5.523 4.477 10 10 10s10-4.477 10-10c0-5.425 4.414-9.839 9.84-9.839 5.523 0 10-4.477 10-10s-4.477-10-10-10c-5.426 0-9.84-4.414-9.84-9.84 0-5.523-4.477-10-10-10s-10 4.477-10 10c0 5.426-4.414 9.84-9.84 9.84-5.523 0-10 4.477-10 10s4.477 10 10 10z"/><circle cx="242.261" cy="502.004" r="10"/></svg>