<svg xmlns="http://www.w3.org/2000/svg" xmlns:xlink="http://www.w3.org/1999/xlink" id="Capa_1" x="0" y="0" fill="#fff" version="1.1" viewBox="0 0 295.329 295.329" xml:space="preserve" style="enable-background:new 0 0 295.329 295.329"><path id="XMLID_49_" d="M291.416,142.376l-33.14-25.16c-2.997-2.275-7.01-2.661-10.383-0.98c-3.362,1.666-5.492,5.101-5.492,8.861	v15.395h-9.803v-15.559c0-5.465-4.43-9.896-9.893-9.896h-19.696V78.294c0-5.466-4.431-9.896-9.894-9.896h-30.773V57.896h8.284	c5.464,0,9.895-4.431,9.895-9.895c0-5.464-4.431-9.893-9.895-9.893h-63.92c-5.463,0-9.894,4.429-9.894,9.893	c0,5.464,4.431,9.895,9.894,9.895h8.29v10.502h-38.25c-5.464,0-9.895,4.43-9.895,9.896v19.313H47.528	c-5.465,0-9.895,4.43-9.895,9.894v22.634H19.787v-28.073c0-5.464-4.43-9.894-9.894-9.894C4.429,92.167,0,96.598,0,102.061v103.49	c0,5.464,4.429,9.893,9.894,9.893c5.464,0,9.894-4.43,9.894-9.893v-28.074h17.847v23.203c0,5.465,4.43,9.894,9.895,9.894h24.881	l34.907,42.989c1.879,2.313,4.701,3.656,7.68,3.656h107.709c5.464,0,9.893-4.432,9.893-9.895v-13.073h9.803v13.073	c0,3.865,2.249,7.372,5.758,8.99c1.323,0.607,2.735,0.904,4.135,0.904c2.319,0,4.609-0.816,6.441-2.383l33.141-28.404	c2.193-1.882,3.453-4.625,3.453-7.514v-68.663C295.329,147.164,293.88,144.246,291.416,142.376z"/></svg>