<svg height="512pt" fill="#fff" viewBox="0 0 512 512" width="512pt" xmlns="http://www.w3.org/2000/svg"><path d="m512 67c0-36.945312-30.054688-67-67-67s-67 30.054688-67 67c0 29.980469 19.796875 55.421875 47 63.949219v105.050781h-147v-105.050781c27.203125-8.527344 47-33.96875 47-63.949219 0-36.945312-30.054688-67-67-67s-67 30.054688-67 67c0 29.980469 19.796875 55.421875 47 63.949219v105.050781h-151v-105.050781c27.203125-8.527344 47-33.96875 47-63.949219 0-36.945312-30.054688-67-67-67s-67 30.054688-67 67c0 29.980469 19.796875 55.421875 47 63.949219v250.101562c-27.203125 8.527344-47 33.96875-47 63.949219 0 36.945312 30.054688 67 67 67s67-30.054688 67-67c0-29.980469-19.796875-55.421875-47-63.949219v-105.050781h151v105.050781c-27.203125 8.527344-47 33.96875-47 63.949219 0 36.945312 30.054688 67 67 67s67-30.054688 67-67c0-29.980469-19.796875-55.421875-47-63.949219v-105.050781h187v-145.050781c27.203125-8.527344 47-33.96875 47-63.949219zm-254-27c14.886719 0 27 12.113281 27 27s-12.113281 27-27 27-27-12.113281-27-27 12.113281-27 27-27zm-191 0c14.886719 0 27 12.113281 27 27s-12.113281 27-27 27-27-12.113281-27-27 12.113281-27 27-27zm0 432c-14.886719 0-27-12.113281-27-27s12.113281-27 27-27 27 12.113281 27 27-12.113281 27-27 27zm191 0c-14.886719 0-27-12.113281-27-27s12.113281-27 27-27 27 12.113281 27 27-12.113281 27-27 27zm187-378c-14.886719 0-27-12.113281-27-27s12.113281-27 27-27 27 12.113281 27 27-12.113281 27-27 27zm0 0"/></svg>